<svg width="1346" height="842" viewBox="0 0 1346 842" fill="none" xmlns="http://www.w3.org/2000/svg">
<g opacity="0.8" clip-path="url(#clip0_4003_4061)">
<g clip-path="url(#clip1_4003_4061)">
<mask id="mask0_4003_4061" style="mask-type:luminance" maskUnits="userSpaceOnUse" x="0" y="0" width="1346" height="842">
<path d="M0 841.25H1346V-2.02656e-05H0V841.25Z" fill="white"/>
</mask>
<g mask="url(#mask0_4003_4061)">
<g style="mix-blend-mode:screen">
<mask id="mask1_4003_4061" style="mask-type:alpha" maskUnits="userSpaceOnUse" x="672" y="73" width="1379" height="1379">
<g style="mix-blend-mode:screen">
<path d="M899.548 252.364C617.678 507.527 596.028 942.879 851.192 1224.75C1106.36 1506.62 1541.71 1528.27 1823.58 1273.11C2105.45 1017.94 2127.1 582.591 1871.93 300.72C1616.77 18.8502 1181.42 -2.79989 899.548 252.364Z" stroke="url(#paint0_linear_4003_4061)"/>
</g>
</mask>
<g mask="url(#mask1_4003_4061)">
<path d="M676.51 689.894C695.83 508.212 786.531 341.645 928.66 226.836C999.035 169.988 1079.92 127.558 1166.69 101.969C1253.46 76.3805 1344.43 68.1337 1434.39 77.6998L1361.54 762.735L676.51 689.894Z" fill="url(#paint1_linear_4003_4061)"/>
</g>
<mask id="mask2_4003_4061" style="mask-type:alpha" maskUnits="userSpaceOnUse" x="752" y="153" width="1220" height="1220">
<g style="mix-blend-mode:screen">
<path d="M952.9 311.293C703.576 536.994 684.425 922.079 910.127 1171.4C1135.83 1420.73 1520.91 1439.88 1770.24 1214.18C2019.56 988.475 2038.71 603.39 1813.01 354.066C1587.31 104.741 1202.22 85.5911 952.9 311.293Z" stroke="url(#paint2_linear_4003_4061)"/>
</g>
</mask>
<g mask="url(#mask2_4003_4061)">
<path d="M837.973 450.885C878.926 382.127 933.022 322.11 997.171 274.26C1093.78 202.193 1209.59 160.393 1329.96 154.145C1450.33 147.898 1569.84 177.484 1673.4 239.163L1361.54 762.735L837.973 450.885Z" fill="url(#paint3_linear_4003_4061)"/>
</g>
<mask id="mask3_4003_4061" style="mask-type:alpha" maskUnits="userSpaceOnUse" x="831" y="232" width="1061" height="1061">
<g style="mix-blend-mode:screen">
<path d="M1006.23 370.221C789.452 566.461 772.802 901.279 969.042 1118.06C1165.28 1334.84 1500.1 1351.49 1716.88 1155.25C1933.66 959.008 1950.31 624.19 1754.07 407.411C1557.83 190.632 1223.01 173.982 1006.23 370.221Z" stroke="url(#paint4_linear_4003_4061)"/>
</g>
</mask>
<g mask="url(#mask3_4003_4061)">
<path d="M1005.91 369.873C1057.5 323.173 1117.79 287.089 1183.32 263.683C1248.86 240.28 1318.36 230.013 1387.87 233.469C1457.37 236.926 1525.52 254.039 1588.41 283.83C1651.3 313.622 1707.71 355.509 1754.41 407.101L1361.54 762.735L1005.91 369.873Z" fill="url(#paint5_linear_4003_4061)"/>
</g>
<mask id="mask4_4003_4061" style="mask-type:alpha" maskUnits="userSpaceOnUse" x="911" y="312" width="902" height="902">
<g style="mix-blend-mode:screen">
<path d="M1059.58 429.151C875.348 595.929 861.197 880.48 1027.97 1064.71C1194.75 1248.95 1479.3 1263.1 1663.54 1096.32C1847.77 929.542 1861.92 644.991 1695.14 460.757C1528.37 276.524 1243.81 262.373 1059.58 429.151Z" stroke="url(#paint6_linear_4003_4061)"/>
</g>
</mask>
<g mask="url(#mask4_4003_4061)">
<path d="M932.789 624.687C950.917 568.382 979.957 516.199 1018.25 471.117C1056.55 426.036 1103.35 388.939 1155.98 361.944C1262.28 307.426 1385.88 297.367 1499.59 333.98L1361.54 762.737L932.789 624.687Z" fill="url(#paint7_linear_4003_4061)"/>
</g>
<mask id="mask5_4003_4061" style="mask-type:alpha" maskUnits="userSpaceOnUse" x="672" y="73" width="1379" height="1379">
<g style="mix-blend-mode:screen">
<path d="M826.535 1195.98C1065.81 1491.46 1499.31 1537.02 1794.79 1297.75C2090.27 1058.48 2135.83 624.975 1896.56 329.497C1657.28 34.0184 1223.78 -11.5446 928.302 227.729C632.824 467.002 587.261 900.504 826.535 1195.98Z" stroke="url(#paint8_linear_4003_4061)"/>
</g>
</mask>
<g mask="url(#mask5_4003_4061)">
<path d="M1251.14 1442.73C1161.84 1428.23 1076.27 1396.29 999.321 1348.72C843.911 1252.65 733.028 1098.78 691.065 920.956C670.286 832.907 667.055 741.628 681.554 652.33L1361.54 762.736L1251.14 1442.73Z" fill="url(#paint9_linear_4003_4061)"/>
</g>
<mask id="mask6_4003_4061" style="mask-type:alpha" maskUnits="userSpaceOnUse" x="752" y="153" width="1220" height="1220">
<g style="mix-blend-mode:screen">
<path d="M888.31 1145.95C1099.96 1407.31 1483.4 1447.62 1744.77 1235.97C2006.13 1024.32 2046.43 640.876 1834.78 379.515C1623.14 118.154 1239.69 77.8514 978.327 289.497C716.966 501.144 676.664 884.592 888.31 1145.95Z" stroke="url(#paint10_linear_4003_4061)"/>
</g>
</mask>
<g mask="url(#mask6_4003_4061)">
<path d="M1021.37 1268.36C954.971 1223.69 898.02 1166.38 853.769 1099.7C809.519 1033.01 778.836 958.27 763.472 879.73C748.108 801.189 748.364 720.392 764.226 641.951C780.088 563.51 811.244 488.961 855.917 422.561L1361.54 762.735L1021.37 1268.36Z" fill="url(#paint11_linear_4003_4061)"/>
</g>
<mask id="mask7_4003_4061" style="mask-type:alpha" maskUnits="userSpaceOnUse" x="831" y="232" width="1061" height="1061">
<g style="mix-blend-mode:screen">
<path d="M950.084 1095.93C1134.1 1323.18 1467.5 1358.22 1694.74 1174.2C1921.99 990.179 1957.03 656.784 1773.01 429.539C1588.99 202.294 1255.6 167.253 1028.35 351.272C801.107 535.291 766.065 868.686 950.084 1095.93Z" stroke="url(#paint12_linear_4003_4061)"/>
</g>
</mask>
<g mask="url(#mask7_4003_4061)">
<path d="M949.724 1096.23C905.927 1042.14 873.212 979.966 853.447 913.241C823.68 812.748 824.381 705.686 855.461 605.592C886.541 505.498 946.603 416.867 1028.05 350.909L1361.54 762.735L949.724 1096.23Z" fill="url(#paint13_linear_4003_4061)"/>
</g>
<mask id="mask8_4003_4061" style="mask-type:alpha" maskUnits="userSpaceOnUse" x="911" y="312" width="902" height="902">
<g style="mix-blend-mode:screen">
<path d="M1011.86 1045.91C1168.25 1239.04 1451.59 1268.82 1644.72 1112.43C1837.85 956.034 1867.63 672.692 1711.24 479.564C1554.85 286.436 1271.5 256.655 1078.38 413.047C885.248 569.439 855.467 852.781 1011.86 1045.91Z" stroke="url(#paint14_linear_4003_4061)"/>
</g>
</mask>
<g mask="url(#mask8_4003_4061)">
<path d="M1200.13 1183.25C1088.6 1140.44 998.648 1055.08 950.052 945.944C901.465 836.808 898.221 712.843 941.032 601.315L1361.54 762.735L1200.13 1183.25Z" fill="url(#paint15_linear_4003_4061)"/>
</g>
<mask id="mask9_4003_4061" style="mask-type:alpha" maskUnits="userSpaceOnUse" x="-704" y="73" width="1378" height="1379">
<g style="mix-blend-mode:screen">
<path d="M447.059 252.363C728.929 507.527 750.579 942.879 495.415 1224.75C240.252 1506.62 -195.1 1528.27 -476.971 1273.11C-758.841 1017.94 -780.491 582.59 -525.327 300.72C-270.164 18.8497 165.188 -2.80038 447.059 252.363Z" stroke="url(#paint16_linear_4003_4061)"/>
</g>
</mask>
<g mask="url(#mask9_4003_4061)">
<path d="M670.08 689.894C650.76 508.212 560.059 341.645 417.93 226.836C347.555 169.988 266.672 127.558 179.899 101.97C93.1262 76.3808 2.16276 68.1339 -87.7974 77.6998L-14.9563 762.735L670.08 689.894Z" fill="url(#paint17_linear_4003_4061)"/>
</g>
<mask id="mask10_4003_4061" style="mask-type:alpha" maskUnits="userSpaceOnUse" x="-625" y="153" width="1220" height="1220">
<g style="mix-blend-mode:screen">
<path d="M393.712 311.293C643.037 536.995 662.187 922.079 436.486 1171.4C210.784 1420.73 -174.3 1439.88 -423.625 1214.18C-672.949 988.476 -692.1 603.391 -466.398 354.066C-240.697 104.742 144.388 85.5916 393.712 311.293Z" stroke="url(#paint18_linear_4003_4061)"/>
</g>
</mask>
<g mask="url(#mask10_4003_4061)">
<path d="M508.616 450.885C425.908 312.025 291.426 211.707 134.753 172.001C-21.9193 132.297 -187.947 156.456 -326.808 239.163L-14.9565 762.735L508.616 450.885Z" fill="url(#paint19_linear_4003_4061)"/>
</g>
<mask id="mask11_4003_4061" style="mask-type:alpha" maskUnits="userSpaceOnUse" x="-545" y="232" width="1061" height="1061">
<g style="mix-blend-mode:screen">
<path d="M340.366 370.222C557.145 566.462 573.795 901.28 377.556 1118.06C181.316 1334.84 -153.502 1351.49 -370.281 1155.25C-587.06 959.009 -603.71 624.191 -407.471 407.412C-211.231 190.633 123.587 173.983 340.366 370.222Z" stroke="url(#paint20_linear_4003_4061)"/>
</g>
</mask>
<g mask="url(#mask11_4003_4061)">
<path d="M340.677 369.873C236.484 275.554 99.0893 226.487 -41.281 233.469C-181.651 240.45 -313.499 302.907 -407.819 407.101L-14.9575 762.735L340.677 369.873Z" fill="url(#paint21_linear_4003_4061)"/>
</g>
<mask id="mask12_4003_4061" style="mask-type:alpha" maskUnits="userSpaceOnUse" x="-466" y="312" width="902" height="902">
<g style="mix-blend-mode:screen">
<path d="M287.022 429.151C471.256 595.929 485.406 880.48 318.628 1064.71C151.851 1248.95 -132.7 1263.1 -316.934 1096.32C-501.168 929.542 -515.318 644.991 -348.541 460.758C-181.763 276.524 102.788 262.373 287.022 429.151Z" stroke="url(#paint22_linear_4003_4061)"/>
</g>
</mask>
<g mask="url(#mask12_4003_4061)">
<path d="M413.801 624.687C395.672 568.382 366.63 516.199 328.334 471.117C290.038 426.036 243.238 388.939 190.605 361.944C137.972 334.95 80.5379 318.586 21.5811 313.788C-37.3757 308.99 -96.7003 315.851 -153.005 333.98L-14.9562 762.737L413.801 624.687Z" fill="url(#paint23_linear_4003_4061)"/>
</g>
<mask id="mask13_4003_4061" style="mask-type:alpha" maskUnits="userSpaceOnUse" x="-704" y="73" width="1378" height="1379">
<g style="mix-blend-mode:screen">
<path d="M520.056 1195.98C280.783 1491.46 -152.719 1537.02 -448.198 1297.75C-743.676 1058.47 -789.239 624.97 -549.966 329.492C-310.692 34.0135 122.81 -11.5495 418.288 227.724C713.767 466.998 759.33 900.5 520.056 1195.98Z" stroke="url(#paint24_linear_4003_4061)"/>
</g>
</mask>
<g mask="url(#mask13_4003_4061)">
<path d="M95.4503 1442.73C184.748 1428.23 270.316 1396.29 347.268 1348.72C424.22 1301.15 491.05 1238.89 543.94 1165.49C596.832 1092.1 634.748 1009 655.526 920.956C676.304 832.907 679.536 741.628 665.036 652.33L-14.9553 762.736L95.4503 1442.73Z" fill="url(#paint25_linear_4003_4061)"/>
</g>
<mask id="mask14_4003_4061" style="mask-type:alpha" maskUnits="userSpaceOnUse" x="-625" y="153" width="1220" height="1220">
<g style="mix-blend-mode:screen">
<path d="M458.281 1145.95C246.634 1407.32 -136.815 1447.62 -398.176 1235.97C-659.538 1024.33 -699.84 640.877 -488.194 379.515C-276.547 118.153 106.901 77.8512 368.263 289.498C629.625 501.144 669.927 884.593 458.281 1145.95Z" stroke="url(#paint26_linear_4003_4061)"/>
</g>
</mask>
<g mask="url(#mask14_4003_4061)">
<path d="M325.218 1268.36C391.618 1223.69 448.57 1166.38 492.82 1099.7C537.071 1033.02 567.754 958.27 583.117 879.73C614.146 721.111 580.893 556.662 490.673 422.561L-14.9565 762.735L325.218 1268.36Z" fill="url(#paint27_linear_4003_4061)"/>
</g>
<mask id="mask15_4003_4061" style="mask-type:alpha" maskUnits="userSpaceOnUse" x="-545" y="232" width="1061" height="1061">
<g style="mix-blend-mode:screen">
<path d="M396.508 1095.93C212.489 1323.17 -120.906 1358.22 -348.151 1174.2C-575.395 990.177 -610.437 656.782 -426.418 429.538C-242.399 202.293 90.9963 167.252 318.241 351.271C545.486 535.29 580.527 868.685 396.508 1095.93Z" stroke="url(#paint28_linear_4003_4061)"/>
</g>
</mask>
<g mask="url(#mask15_4003_4061)">
<path d="M396.87 1096.23C485.317 987.002 526.753 847.117 512.063 707.343C497.37 567.569 427.756 439.356 318.534 350.909L-14.9563 762.735L396.87 1096.23Z" fill="url(#paint29_linear_4003_4061)"/>
</g>
<mask id="mask16_4003_4061" style="mask-type:alpha" maskUnits="userSpaceOnUse" x="-466" y="312" width="902" height="902">
<g style="mix-blend-mode:screen">
<path d="M334.732 1045.91C178.34 1239.04 -105.002 1268.82 -298.13 1112.42C-491.258 956.033 -521.039 672.691 -364.647 479.563C-208.255 286.435 75.0871 256.654 268.215 413.046C461.343 569.438 491.124 852.78 334.732 1045.91Z" stroke="url(#paint30_linear_4003_4061)"/>
</g>
</mask>
<g mask="url(#mask16_4003_4061)">
<path d="M146.463 1183.25C257.991 1140.44 347.944 1055.08 396.533 945.944C445.123 836.81 448.369 712.843 405.558 601.316L-14.9565 762.736L146.463 1183.25Z" fill="url(#paint31_linear_4003_4061)"/>
</g>
</g>
</g>
</g>
</g>
<defs>
<linearGradient id="paint0_linear_4003_4061" x1="899.232" y1="252.014" x2="1823.96" y2="1273.43" gradientUnits="userSpaceOnUse">
<stop stop-color="#8C8C8C"/>
<stop offset="1" stop-color="#8C8C8C" stop-opacity="0"/>
</linearGradient>
<linearGradient id="paint1_linear_4003_4061" x1="1423.58" y1="81.1284" x2="671.513" y2="681.519" gradientUnits="userSpaceOnUse">
<stop stop-color="#5938FF" stop-opacity="0"/>
<stop offset="1" stop-color="#5938FF"/>
</linearGradient>
<linearGradient id="paint2_linear_4003_4061" x1="952.584" y1="310.943" x2="1770.61" y2="1214.51" gradientUnits="userSpaceOnUse">
<stop stop-color="#8C8C8C"/>
<stop offset="1" stop-color="#8C8C8C" stop-opacity="0"/>
</linearGradient>
<linearGradient id="paint3_linear_4003_4061" x1="1684.51" y1="241.049" x2="842.513" y2="449.287" gradientUnits="userSpaceOnUse">
<stop stop-color="#5938FF" stop-opacity="0"/>
<stop offset="1" stop-color="#5938FF"/>
</linearGradient>
<linearGradient id="paint4_linear_4003_4061" x1="1005.92" y1="369.873" x2="1717.24" y2="1155.58" gradientUnits="userSpaceOnUse">
<stop stop-color="#8C8C8C"/>
<stop offset="1" stop-color="#8C8C8C" stop-opacity="0"/>
</linearGradient>
<linearGradient id="paint5_linear_4003_4061" x1="1767.75" y1="421.833" x2="1005.91" y2="369.873" gradientUnits="userSpaceOnUse">
<stop stop-color="#5938FF" stop-opacity="0"/>
<stop offset="1" stop-color="#5938FF"/>
</linearGradient>
<linearGradient id="paint6_linear_4003_4061" x1="1059.27" y1="428.805" x2="1663.89" y2="1096.65" gradientUnits="userSpaceOnUse">
<stop stop-color="#8C8C8C"/>
<stop offset="1" stop-color="#8C8C8C" stop-opacity="0"/>
</linearGradient>
<linearGradient id="paint7_linear_4003_4061" x1="1506.37" y1="333.8" x2="921.391" y2="654.867" gradientUnits="userSpaceOnUse">
<stop stop-color="#5938FF" stop-opacity="0"/>
<stop offset="1" stop-color="#5938FF"/>
</linearGradient>
<linearGradient id="paint8_linear_4003_4061" x1="826.168" y1="1196.28" x2="1896.91" y2="329.137" gradientUnits="userSpaceOnUse">
<stop stop-color="#8C8C8C"/>
<stop offset="1" stop-color="#8C8C8C" stop-opacity="0"/>
</linearGradient>
<linearGradient id="paint9_linear_4003_4061" x1="684.383" y1="663.305" x2="1242.51" y2="1447.26" gradientUnits="userSpaceOnUse">
<stop stop-color="#5938FF" stop-opacity="0"/>
<stop offset="1" stop-color="#5938FF"/>
</linearGradient>
<linearGradient id="paint10_linear_4003_4061" x1="887.944" y1="1146.25" x2="1835.13" y2="379.164" gradientUnits="userSpaceOnUse">
<stop stop-color="#8C8C8C"/>
<stop offset="1" stop-color="#8C8C8C" stop-opacity="0"/>
</linearGradient>
<linearGradient id="paint11_linear_4003_4061" x1="858.411" y1="411.573" x2="1020.03" y2="1263.74" gradientUnits="userSpaceOnUse">
<stop stop-color="#5938FF" stop-opacity="0"/>
<stop offset="1" stop-color="#5938FF"/>
</linearGradient>
<linearGradient id="paint12_linear_4003_4061" x1="949.72" y1="1096.23" x2="1773.36" y2="429.195" gradientUnits="userSpaceOnUse">
<stop stop-color="#8C8C8C"/>
<stop offset="1" stop-color="#8C8C8C" stop-opacity="0"/>
</linearGradient>
<linearGradient id="paint13_linear_4003_4061" x1="1043.5" y1="338.403" x2="949.724" y2="1096.23" gradientUnits="userSpaceOnUse">
<stop stop-color="#5938FF" stop-opacity="0"/>
<stop offset="1" stop-color="#5938FF"/>
</linearGradient>
<linearGradient id="paint14_linear_4003_4061" x1="1011.5" y1="1046.2" x2="1711.59" y2="479.227" gradientUnits="userSpaceOnUse">
<stop stop-color="#8C8C8C"/>
<stop offset="1" stop-color="#8C8C8C" stop-opacity="0"/>
</linearGradient>
<linearGradient id="paint15_linear_4003_4061" x1="941.228" y1="594.537" x2="1229.64" y2="1196.29" gradientUnits="userSpaceOnUse">
<stop stop-color="#5938FF" stop-opacity="0"/>
<stop offset="1" stop-color="#5938FF"/>
</linearGradient>
<linearGradient id="paint16_linear_4003_4061" x1="447.372" y1="252.017" x2="-477.349" y2="1273.43" gradientUnits="userSpaceOnUse">
<stop stop-color="#8C8C8C"/>
<stop offset="1" stop-color="#8C8C8C" stop-opacity="0"/>
</linearGradient>
<linearGradient id="paint17_linear_4003_4061" x1="-76.9948" y1="81.1284" x2="675.076" y2="681.519" gradientUnits="userSpaceOnUse">
<stop stop-color="#5938FF" stop-opacity="0"/>
<stop offset="1" stop-color="#5938FF"/>
</linearGradient>
<linearGradient id="paint18_linear_4003_4061" x1="394.026" y1="310.947" x2="-423.996" y2="1214.51" gradientUnits="userSpaceOnUse">
<stop stop-color="#8C8C8C"/>
<stop offset="1" stop-color="#8C8C8C" stop-opacity="0"/>
</linearGradient>
<linearGradient id="paint19_linear_4003_4061" x1="-337.916" y1="241.049" x2="504.077" y2="449.287" gradientUnits="userSpaceOnUse">
<stop stop-color="#5938FF" stop-opacity="0"/>
<stop offset="1" stop-color="#5938FF"/>
</linearGradient>
<linearGradient id="paint20_linear_4003_4061" x1="340.68" y1="369.876" x2="-370.644" y2="1155.58" gradientUnits="userSpaceOnUse">
<stop stop-color="#8C8C8C"/>
<stop offset="1" stop-color="#8C8C8C" stop-opacity="0"/>
</linearGradient>
<linearGradient id="paint21_linear_4003_4061" x1="-421.156" y1="421.833" x2="340.677" y2="369.873" gradientUnits="userSpaceOnUse">
<stop stop-color="#5938FF" stop-opacity="0"/>
<stop offset="1" stop-color="#5938FF"/>
</linearGradient>
<linearGradient id="paint22_linear_4003_4061" x1="287.336" y1="428.805" x2="-317.289" y2="1096.66" gradientUnits="userSpaceOnUse">
<stop stop-color="#8C8C8C"/>
<stop offset="1" stop-color="#8C8C8C" stop-opacity="0"/>
</linearGradient>
<linearGradient id="paint23_linear_4003_4061" x1="-159.784" y1="333.8" x2="425.198" y2="654.868" gradientUnits="userSpaceOnUse">
<stop stop-color="#5938FF" stop-opacity="0"/>
<stop offset="1" stop-color="#5938FF"/>
</linearGradient>
<linearGradient id="paint24_linear_4003_4061" x1="520.419" y1="1196.27" x2="-550.315" y2="329.132" gradientUnits="userSpaceOnUse">
<stop stop-color="#8C8C8C"/>
<stop offset="1" stop-color="#8C8C8C" stop-opacity="0"/>
</linearGradient>
<linearGradient id="paint25_linear_4003_4061" x1="662.208" y1="663.305" x2="104.087" y2="1447.26" gradientUnits="userSpaceOnUse">
<stop stop-color="#5938FF" stop-opacity="0"/>
<stop offset="1" stop-color="#5938FF"/>
</linearGradient>
<linearGradient id="paint26_linear_4003_4061" x1="458.643" y1="1146.25" x2="-488.544" y2="379.163" gradientUnits="userSpaceOnUse">
<stop stop-color="#8C8C8C"/>
<stop offset="1" stop-color="#8C8C8C" stop-opacity="0"/>
</linearGradient>
<linearGradient id="paint27_linear_4003_4061" x1="488.179" y1="411.573" x2="326.562" y2="1263.74" gradientUnits="userSpaceOnUse">
<stop stop-color="#5938FF" stop-opacity="0"/>
<stop offset="1" stop-color="#5938FF"/>
</linearGradient>
<linearGradient id="paint28_linear_4003_4061" x1="396.871" y1="1096.22" x2="-426.77" y2="429.193" gradientUnits="userSpaceOnUse">
<stop stop-color="#8C8C8C"/>
<stop offset="1" stop-color="#8C8C8C" stop-opacity="0"/>
</linearGradient>
<linearGradient id="paint29_linear_4003_4061" x1="303.09" y1="338.403" x2="396.87" y2="1096.23" gradientUnits="userSpaceOnUse">
<stop stop-color="#5938FF" stop-opacity="0"/>
<stop offset="1" stop-color="#5938FF"/>
</linearGradient>
<linearGradient id="paint30_linear_4003_4061" x1="335.094" y1="1046.2" x2="-365.001" y2="479.227" gradientUnits="userSpaceOnUse">
<stop stop-color="#8C8C8C"/>
<stop offset="1" stop-color="#8C8C8C" stop-opacity="0"/>
</linearGradient>
<linearGradient id="paint31_linear_4003_4061" x1="405.366" y1="594.537" x2="116.956" y2="1196.29" gradientUnits="userSpaceOnUse">
<stop stop-color="#5938FF" stop-opacity="0"/>
<stop offset="1" stop-color="#5938FF"/>
</linearGradient>
<clipPath id="clip0_4003_4061">
<rect width="1346" height="841.25" fill="white" transform="matrix(1 0 0 -1 0 841.25)"/>
</clipPath>
<clipPath id="clip1_4003_4061">
<rect width="1346" height="841.25" fill="white" transform="matrix(1 0 0 -1 0 841.25)"/>
</clipPath>
</defs>
</svg>
