<svg width="49" height="46" viewBox="0 0 49 46" fill="none" xmlns="http://www.w3.org/2000/svg">
<path d="M11.8567 16.0222C12.1432 16.5394 12.4695 17.1821 12.8356 17.9501C13.2176 18.7025 13.6076 19.5254 14.0056 20.4188C14.4194 21.2966 14.8253 22.1979 15.2233 23.1227C15.6212 24.0475 15.9953 24.9174 16.3455 25.7325C16.6956 24.9174 17.0697 24.0475 17.4676 23.1227C17.8656 22.1979 18.2635 21.2966 18.6615 20.4188C19.0753 19.5254 19.4653 18.7025 19.8314 17.9501C20.2134 17.1821 20.5477 16.5394 20.8342 16.0222H24.2247C24.3838 17.1037 24.5271 18.3185 24.6544 19.6665C24.7977 20.9988 24.9171 22.3938 25.0126 23.8516C25.124 25.2936 25.2195 26.7435 25.2991 28.2012C25.3946 29.659 25.4742 31.0305 25.5379 32.3158H21.9086C21.8609 30.7327 21.7972 29.0085 21.7176 27.1432C21.638 25.2779 21.5187 23.397 21.3595 21.5004C21.073 22.1587 20.7546 22.8876 20.4044 23.687C20.0542 24.4864 19.7041 25.2858 19.3539 26.0852C19.0196 26.8846 18.6933 27.6526 18.3749 28.3893C18.0566 29.1104 17.786 29.7295 17.5631 30.2468H14.9606C14.7378 29.7295 14.4672 29.1104 14.1488 28.3893C13.8305 27.6526 13.4962 26.8846 13.146 26.0852C12.8117 25.2858 12.4695 24.4864 12.1193 23.687C11.7691 22.8876 11.4508 22.1587 11.1643 21.5004C11.0051 23.397 10.8857 25.2779 10.8061 27.1432C10.7265 29.0085 10.6629 30.7327 10.6151 32.3158H6.98592C7.04959 31.0305 7.12122 29.659 7.2008 28.2012C7.29631 26.7435 7.39181 25.2936 7.48732 23.8516C7.59874 22.3938 7.71812 20.9988 7.84546 19.6665C7.98872 18.3185 8.13994 17.1037 8.29912 16.0222H11.8567Z" fill="white"/>
<path d="M38.657 32.3158C38.3227 31.7829 37.9248 31.2107 37.4632 30.5994C37.0175 29.9725 36.524 29.3533 35.9828 28.742C35.4576 28.115 34.9084 27.5194 34.3354 26.9551C33.7623 26.3752 33.1893 25.8657 32.6163 25.4269V32.3158H28.8915V16.0222H32.6163V22.1822C33.5872 21.1791 34.5582 20.1367 35.5292 19.0552C36.5161 17.958 37.4313 16.9469 38.275 16.0222H42.6921C41.5619 17.3388 40.4238 18.6084 39.2778 19.8311C38.1476 21.0537 36.9538 22.2841 35.6963 23.5224C37.0175 24.6039 38.2909 25.8893 39.5165 27.3783C40.7581 28.8674 41.944 30.5132 43.0741 32.3158H38.657Z" fill="#2B7FFF"/>
</svg>
